<svg id="visual" viewBox="0 0 900 600" width="900" height="600" xmlns="http://www.w3.org/2000/svg" xmlns:xlink="http://www.w3.org/1999/xlink" version="1.1"><rect x="0" y="0" width="900" height="600" fill="#001220"></rect><path d="M0 411L21.5 414.2C43 417.3 86 423.7 128.8 415.8C171.7 408 214.3 386 257.2 381.8C300 377.7 343 391.3 385.8 402.7C428.7 414 471.3 423 514.2 421.5C557 420 600 408 642.8 395C685.7 382 728.3 368 771.2 366.7C814 365.3 857 376.7 878.5 382.3L900 388L900 601L878.5 601C857 601 814 601 771.2 601C728.3 601 685.7 601 642.8 601C600 601 557 601 514.2 601C471.3 601 428.7 601 385.8 601C343 601 300 601 257.2 601C214.3 601 171.7 601 128.8 601C86 601 43 601 21.5 601L0 601Z" fill="#fa7268"></path><path d="M0 398L21.5 397.3C43 396.7 86 395.3 128.8 408.5C171.7 421.7 214.3 449.3 257.2 453.5C300 457.7 343 438.3 385.8 435.7C428.7 433 471.3 447 514.2 444C557 441 600 421 642.8 416.5C685.7 412 728.3 423 771.2 432.5C814 442 857 450 878.5 454L900 458L900 601L878.5 601C857 601 814 601 771.2 601C728.3 601 685.7 601 642.8 601C600 601 557 601 514.2 601C471.3 601 428.7 601 385.8 601C343 601 300 601 257.2 601C214.3 601 171.7 601 128.8 601C86 601 43 601 21.5 601L0 601Z" fill="#ef5f67"></path><path d="M0 443L21.5 453.7C43 464.3 86 485.7 128.8 490.8C171.7 496 214.3 485 257.2 474C300 463 343 452 385.8 455C428.7 458 471.3 475 514.2 486C557 497 600 502 642.8 499.3C685.7 496.7 728.3 486.3 771.2 475.2C814 464 857 452 878.5 446L900 440L900 601L878.5 601C857 601 814 601 771.2 601C728.3 601 685.7 601 642.8 601C600 601 557 601 514.2 601C471.3 601 428.7 601 385.8 601C343 601 300 601 257.2 601C214.3 601 171.7 601 128.8 601C86 601 43 601 21.5 601L0 601Z" fill="#e34c67"></path><path d="M0 493L21.5 496.7C43 500.3 86 507.7 128.8 510.5C171.7 513.3 214.3 511.7 257.2 507.2C300 502.7 343 495.3 385.8 493.2C428.7 491 471.3 494 514.2 493.8C557 493.7 600 490.3 642.8 496.8C685.7 503.3 728.3 519.7 771.2 521.8C814 524 857 512 878.5 506L900 500L900 601L878.5 601C857 601 814 601 771.2 601C728.3 601 685.7 601 642.8 601C600 601 557 601 514.2 601C471.3 601 428.7 601 385.8 601C343 601 300 601 257.2 601C214.3 601 171.7 601 128.8 601C86 601 43 601 21.5 601L0 601Z" fill="#d53867"></path><path d="M0 553L21.5 548.8C43 544.7 86 536.3 128.8 536.7C171.7 537 214.3 546 257.2 553.5C300 561 343 567 385.8 562.3C428.7 557.7 471.3 542.3 514.2 542C557 541.7 600 556.3 642.8 562.5C685.7 568.7 728.3 566.3 771.2 558.5C814 550.7 857 537.3 878.5 530.7L900 524L900 601L878.5 601C857 601 814 601 771.2 601C728.3 601 685.7 601 642.8 601C600 601 557 601 514.2 601C471.3 601 428.7 601 385.8 601C343 601 300 601 257.2 601C214.3 601 171.7 601 128.8 601C86 601 43 601 21.5 601L0 601Z" fill="#c62368"></path></svg>